<svg width="1142" height="213" viewBox="0 0 1142 213" fill="none" xmlns="http://www.w3.org/2000/svg">
<path d="M416 213H0V0H416V213ZM510.454 17.7041C522.096 17.7041 532.296 19.7335 541.054 23.792C549.865 27.7972 556.781 33.3782 561.801 40.5342C566.821 47.6367 569.411 55.8073 569.571 65.0459H540.974C540.226 58.0502 537.075 52.6025 531.521 48.7041C526.021 44.8059 518.865 42.8564 510.054 42.8564C503.859 42.8565 498.546 43.7911 494.113 45.6602C489.681 47.5292 486.29 50.0664 483.94 53.2705C481.591 56.4746 480.388 60.1323 480.335 64.2441C480.335 67.6617 481.11 70.6259 482.658 73.1357C484.26 75.6457 486.423 77.7826 489.146 79.5449C491.87 81.2538 494.887 82.6953 498.198 83.8701C501.509 85.045 504.848 86.0329 508.212 86.834L523.592 90.6787C529.786 92.1206 535.741 94.0699 541.455 96.5264C547.222 98.9829 552.376 102.08 556.915 105.818C561.508 109.557 565.138 114.07 567.809 119.356C570.479 124.643 571.814 130.838 571.814 137.94C571.814 147.553 569.357 156.017 564.444 163.333C559.531 170.596 552.429 176.284 543.137 180.396C533.898 184.454 522.71 186.483 509.573 186.483C496.81 186.483 485.729 184.507 476.33 180.556C466.985 176.604 459.669 170.836 454.382 163.253C449.148 155.67 446.318 146.431 445.891 135.537H475.129C475.556 141.251 477.318 146.004 480.415 149.796C483.512 153.587 487.544 156.418 492.511 158.287C497.531 160.156 503.138 161.09 509.333 161.09C515.795 161.09 521.456 160.129 526.315 158.206C531.228 156.23 535.073 153.507 537.85 150.036C540.626 146.512 542.042 142.4 542.096 137.7C542.042 133.428 540.788 129.903 538.331 127.126C535.875 124.296 532.429 121.946 527.997 120.077C523.618 118.155 518.491 116.445 512.617 114.95L493.953 110.145C480.442 106.673 469.761 101.412 461.911 94.3633C454.115 87.2608 450.216 77.8353 450.216 66.0869C450.216 56.4212 452.833 47.957 458.066 40.6943C463.353 33.4316 470.536 27.7972 479.614 23.792C488.693 19.7334 498.973 17.7041 510.454 17.7041ZM721.989 44.8594H671.283V184H641.805V44.8594H591.099V19.9473H721.989V44.8594ZM809.703 92.5215H811.305L851.437 19.9473H885L825.323 122.801V184H795.685V122.801L736.007 19.9473H769.57L809.703 92.5215ZM935.767 159.088H1008.02V184H906.048V19.9473H935.767V159.088ZM1140.51 44.8594H1063.53V89.3975H1134.98V114.31H1063.53V159.088H1141.15V184H1033.81V19.9473H1140.51V44.8594ZM13.7783 59.6445H51.8076V164H73.916V59.6445H111.945V40.96H13.7783V59.6445ZM130.87 164H153.159V111.732H210.173V164H232.521V40.96H210.173V93.0479H153.159V40.96H130.87V164ZM256.763 164H279.052V40.96H256.763V164ZM303.188 164H325.478V118.941H348.157L372.338 164H397.21L370.597 115.287C371.397 114.964 372.179 114.622 372.938 114.256C379.427 111.092 384.334 106.626 387.658 100.858C391.023 95.0509 392.704 88.2017 392.704 80.3115C392.704 72.4614 391.042 65.5927 387.718 59.7051C384.434 53.7774 379.568 49.171 373.119 45.8867C366.711 42.6025 358.78 40.96 349.328 40.96H303.188V164ZM345.904 59.585C351.471 59.585 356.018 60.4058 359.542 62.0479C363.066 63.6499 365.69 66.0128 367.412 69.1367C369.134 72.2207 369.995 75.9459 369.995 80.3115C369.995 84.6771 369.134 88.3623 367.412 91.3662C365.73 94.3299 363.126 96.5923 359.602 98.1543C356.077 99.6762 351.551 100.437 346.024 100.438H325.478V59.585H345.904Z" fill="#6FD1FF"/>
</svg>
