<svg width="1655" height="1759" viewBox="0 0 1655 1759" fill="none" xmlns="http://www.w3.org/2000/svg">
<g filter="url(#filter0_d_1_74)">
<path d="M621.296 49.7514C677.027 23.5184 1581.51 459.741 1614.67 523.998C1647.84 588.256 1190.98 1411.49 1190.98 1411.49L1025.84 1525.24L860.705 1638.98C860.705 1638.98 83.8478 1326.22 47.8484 1250.92C11.849 1175.61 565.564 75.9843 621.296 49.7514Z" fill="#F2FF80"/>
<rect x="549.071" y="201.036" width="1100.78" height="2.01977" transform="rotate(25.5202 549.071 201.036)" fill="#333332"/>
<rect x="584.749" y="126.305" width="1100.78" height="2.01977" transform="rotate(25.5202 584.749 126.305)" fill="#333332"/>
<rect x="477.717" y="350.499" width="1100.78" height="2.01977" transform="rotate(25.5202 477.717 350.499)" fill="#333332"/>
<rect x="513.394" y="275.768" width="1100.78" height="2.01977" transform="rotate(25.5202 513.394 275.768)" fill="#333332"/>
<rect x="406.362" y="499.961" width="1100.78" height="2.01977" transform="rotate(25.5202 406.362 499.961)" fill="#333332"/>
<rect x="442.039" y="425.23" width="1100.78" height="2.01977" transform="rotate(25.5202 442.039 425.23)" fill="#333332"/>
<rect x="335.007" y="649.423" width="1100.78" height="2.01977" transform="rotate(25.5202 335.007 649.423)" fill="#333332"/>
<rect x="370.685" y="574.692" width="1100.78" height="2.01977" transform="rotate(25.5202 370.685 574.692)" fill="#333332"/>
<rect x="263.653" y="798.886" width="1100.78" height="2.01977" transform="rotate(25.5202 263.653 798.886)" fill="#333332"/>
<rect x="299.33" y="724.155" width="1100.78" height="2.01977" transform="rotate(25.5202 299.33 724.155)" fill="#333332"/>
<rect x="192.298" y="948.348" width="1076.54" height="2.01977" transform="rotate(25.5202 192.298 948.348)" fill="#333332"/>
<rect x="227.975" y="873.617" width="1100.78" height="2.01977" transform="rotate(25.5202 227.975 873.617)" fill="#333332"/>
<rect x="120.944" y="1097.81" width="989.53" height="2.01977" transform="rotate(25.5202 120.944 1097.81)" fill="#333332"/>
<rect x="156.621" y="1023.08" width="1015.08" height="2.01977" transform="rotate(25.5202 156.621 1023.08)" fill="#333332"/>
<rect x="85.2662" y="1172.54" width="894.708" height="2.01977" transform="rotate(25.5202 85.2662 1172.54)" fill="#333332"/>
</g>
<g filter="url(#filter1_d_1_74)">
<path d="M843.586 1256.83C887.719 1249.47 1192.34 1411.1 1192.34 1411.1L860.931 1637.79C860.931 1637.79 799.453 1264.2 843.586 1256.83Z" fill="url(#paint0_linear_1_74)"/>
</g>
<path d="M1647.51 706.723C1647.51 706.723 1647.5 706.723 1647.5 706.724C1647.5 706.724 1647.5 706.726 1647.5 706.728C1647.5 706.729 1647.5 706.731 1647.5 706.733C1647.5 706.734 1647.5 706.735 1647.5 706.736C1647.5 706.736 1647.5 706.736 1647.5 706.736C1647.62 706.771 1647.74 706.805 1647.86 706.843C1647.92 706.864 1647.98 706.885 1648.04 706.911C1648.07 706.923 1648.11 706.94 1648.12 706.959C1648.11 706.974 1648.06 706.976 1648.03 706.978C1647.9 706.984 1647.77 706.974 1647.63 706.965C1647.61 706.964 1647.6 706.962 1647.58 706.961C1645.67 706.787 1643.77 706.532 1641.87 706.302C1641.75 706.287 1641.63 706.272 1641.51 706.257C1641.51 706.256 1641.51 706.257 1641.5 706.258C1641.5 706.259 1641.5 706.261 1641.5 706.262C1641.5 706.264 1641.5 706.266 1641.5 706.267C1641.5 706.269 1641.51 706.27 1641.51 706.27C1641.51 706.27 1641.51 706.27 1641.51 706.27C1641.63 706.285 1641.75 706.3 1641.87 706.315C1643.77 706.545 1645.67 706.801 1647.58 706.974C1647.6 706.976 1647.61 706.977 1647.63 706.978C1647.76 706.987 1647.9 706.997 1648.04 706.992C1648.07 706.986 1648.11 706.999 1648.14 706.961C1648.12 706.917 1648.08 706.915 1648.05 706.899C1647.99 706.873 1647.92 706.851 1647.86 706.83C1647.74 706.793 1647.63 706.758 1647.51 706.723Z" fill="black"/>
<path d="M612.965 337.638C613.055 337.59 613.122 337.508 613.152 337.41C613.181 337.312 613.171 337.207 613.123 337.117C613.074 337.027 612.992 336.96 612.895 336.93C612.797 336.901 612.691 336.911 612.602 336.959C612.593 336.964 612.585 336.968 612.576 336.973C612.423 337.055 612.271 337.137 612.118 337.218C612.11 337.223 612.101 337.227 612.093 337.232C612.003 337.28 611.936 337.362 611.906 337.46C611.876 337.557 611.887 337.663 611.935 337.753C611.983 337.843 612.065 337.91 612.163 337.94C612.261 337.969 612.366 337.959 612.456 337.91C612.456 337.91 612.456 337.91 612.456 337.91C612.465 337.906 612.473 337.901 612.482 337.897C612.634 337.815 612.787 337.733 612.939 337.652C612.948 337.647 612.956 337.643 612.965 337.638Z" fill="black"/>
<path d="M643.26 307.471C643.299 307.514 643.338 307.557 643.378 307.6C644.088 308.372 644.798 309.143 645.508 309.915C645.547 309.958 645.586 310.001 645.626 310.044C645.586 310.001 645.547 309.958 645.508 309.915C644.798 309.143 644.088 308.372 643.378 307.6C643.338 307.557 643.299 307.514 643.26 307.471Z" fill="black"/>
<path d="M604.584 316.477C604.254 315.945 603.726 315.566 603.116 315.423C602.505 315.28 601.864 315.386 601.331 315.716C600.799 316.047 600.42 316.575 600.277 317.185C600.135 317.795 600.24 318.437 600.571 318.969C600.571 318.969 600.571 318.969 600.571 318.969C616.276 335.436 636.224 341.54 655.524 349.095C667.627 353.432 679.835 357.151 692.261 360.535C692.308 360.548 692.356 360.561 692.403 360.574C726.429 369.497 761.033 375.029 795.187 381.79C795.189 381.79 795.191 381.79 795.192 381.791C800.165 382.797 805.112 383.648 810.091 384.501C812.563 384.923 815.055 385.351 817.57 385.777C818.821 385.987 820.085 386.202 821.381 386.388C822.04 386.48 822.696 386.57 823.442 386.618C823.833 386.638 824.215 386.659 824.763 386.6C825.049 386.564 825.356 386.517 825.781 386.344C826.189 386.185 826.689 385.825 826.982 385.435C827.017 385.39 827.052 385.345 827.086 385.299C829.355 382.701 829.377 378.078 827.649 375.399C826.058 372.577 823.85 370.581 821.611 368.775C817.085 365.228 812.135 362.559 807.139 360.133C806.446 359.799 805.724 359.529 804.997 359.322C790.975 357.025 780.252 364.946 769.374 370.14C768.731 370.482 768.061 370.857 767.417 371.234C731.528 396.435 703.123 428.766 671.24 457.684C670.732 458.161 670.222 458.64 669.709 459.122C637.707 489.108 604.802 518.133 572.346 547.723C571.867 548.161 571.397 548.592 570.934 549.016C562.048 557.844 553.401 563.231 544.736 576.316C544.77 576.639 544.868 577.115 545.276 577.605C545.706 578.101 546.154 578.268 546.495 578.358C546.762 578.426 547.008 578.435 547.159 578.433C547.299 578.431 547.421 578.419 547.534 578.404C547.909 578.349 548.118 578.281 548.344 578.213C548.739 578.088 549.083 577.953 549.393 577.828C561.243 572.485 572.431 566.834 584.044 561.505C584.705 561.199 585.378 560.888 586.062 560.573C632.671 539.177 679.468 518.129 727.12 499.358C727.744 499.114 728.365 498.872 728.984 498.632C760.736 486.363 793.233 475.491 826.267 467.779C826.891 467.638 827.438 467.517 828.052 467.382C830.703 466.818 833.55 466.242 835.898 466.13C836.141 466.122 836.434 466.145 836.398 466.155C836.378 466.154 836.339 466.154 836.209 466.111C836.06 466.048 835.842 466.014 835.411 465.582C834.996 465.222 834.721 464.196 834.823 463.798C834.897 463.299 834.99 463.198 835.045 463.078C835.138 462.917 835.122 462.955 835.071 462.998C835.025 463.04 834.936 463.12 834.844 463.196C834.647 463.359 834.416 463.535 834.157 463.723C833.136 464.464 831.974 465.222 830.817 466.01C830.618 466.145 830.415 466.283 830.212 466.421C817.605 475.127 804.685 483.315 791.761 491.641C791.582 491.757 791.401 491.873 791.22 491.989C764.412 509.318 737.266 526.014 711.009 544.585C710.866 544.69 710.724 544.794 710.584 544.897C708.799 546.216 707.009 547.577 705.251 549.085C704.36 549.86 703.511 550.607 702.584 551.67C702.344 551.952 702.123 552.224 701.865 552.61C701.803 552.704 701.75 552.789 701.684 552.899C701.612 553.021 701.543 553.147 701.477 553.281C701.41 553.416 701.351 553.548 701.288 553.713C701.214 553.908 701.147 554.121 701.098 554.359C701.007 554.751 700.93 555.625 701.272 556.433C701.441 556.855 701.711 557.249 702 557.54C702.263 557.808 702.545 558.008 702.811 558.157C703.795 558.665 704.318 558.651 704.822 558.706C710.709 558.431 714.193 556.835 718.6 555.669C719.141 555.509 719.662 555.353 720.205 555.191C741.931 548.951 763.959 541.098 785.355 537.32C785.866 537.273 786.352 537.247 786.747 537.249C786.712 537.244 786.612 537.248 786.373 537.161C786.16 537.088 785.795 536.855 785.584 536.569C785.363 536.281 785.299 536.032 785.279 535.928C785.259 535.811 785.271 535.799 785.272 535.832C784.601 539.827 780.794 546.159 778.621 552.061C778.617 552.071 778.614 552.082 778.61 552.092L777.905 553.596L779.434 554.657C790.343 558.956 799.694 554.504 809.08 552.412C809.087 552.41 809.095 552.407 809.102 552.405C813.609 551.188 818.149 550.109 822.673 548.965C822.673 548.965 822.673 548.965 822.673 548.965C818.124 550.003 813.59 551.109 809.026 552.089C809.018 552.09 809.011 552.092 809.003 552.094C799.813 553.899 788.718 555.015 781.65 551.115L782.474 553.681C782.478 553.673 782.482 553.664 782.486 553.656C784.986 548.086 789.15 544.229 790.961 535.991C790.963 535.296 790.998 534.27 790.091 533.035C789.116 531.771 787.632 531.499 786.843 531.497C786.15 531.481 785.488 531.518 784.835 531.576C761.475 535.694 740.522 543.457 718.571 549.729C718.033 549.89 717.517 550.044 716.983 550.202C712.968 551.357 708.11 552.867 705.215 552.952C705.146 552.963 705.126 552.87 705.636 553.121C705.776 553.199 705.949 553.318 706.124 553.495C706.315 553.687 706.507 553.965 706.625 554.26C706.864 554.835 706.795 555.374 706.757 555.539C706.642 555.982 706.632 555.867 706.684 555.816C706.74 555.734 706.84 555.605 706.97 555.456C707.502 554.851 708.255 554.169 709.034 553.507C710.599 552.182 712.328 550.878 714.051 549.613C714.186 549.513 714.323 549.413 714.463 549.312C740.334 531.115 767.701 514.423 794.509 497.098C794.69 496.982 794.871 496.865 795.051 496.749C807.989 488.4 820.78 479.805 833.287 470.829C833.486 470.687 833.684 470.546 833.878 470.407C835.016 469.591 836.141 468.795 837.335 467.839C837.645 467.588 837.938 467.344 838.271 467.035C838.602 466.702 838.927 466.482 839.458 465.617C839.61 465.321 839.762 465.094 839.864 464.402C839.991 463.844 839.66 462.62 839.13 462.145C838.014 461.132 837.603 461.306 837.187 461.183C836.487 461.092 836.036 461.134 835.617 461.161C832.377 461.513 829.812 462.236 827.033 462.85C826.408 462.995 825.853 463.126 825.22 463.277C791.89 471.509 759.59 483.07 727.721 495.38C727.099 495.621 726.476 495.864 725.85 496.109C678.065 514.931 631.239 535.968 584.585 557.363C583.9 557.678 583.226 557.988 582.563 558.291C570.997 563.547 559.299 568.955 547.836 573.87C547.577 573.968 547.291 574.071 547.095 574.127C546.995 574.158 546.901 574.172 546.973 574.159C547.029 574.16 547.108 574.108 547.538 574.2C547.794 574.267 548.177 574.404 548.552 574.836C548.907 575.262 548.983 575.666 549.008 575.903C555.202 570.321 565.858 560.41 574.336 552.727C574.798 552.304 575.268 551.873 575.746 551.435C608.142 521.895 641.001 492.757 672.99 462.606C673.503 462.121 674.013 461.639 674.52 461.159C706.197 432.189 734.768 398.874 769.347 374.529C769.951 374.174 770.575 373.824 771.169 373.506C781.694 368.228 793.282 360.976 803.954 362.976C804.486 363.128 805 363.322 805.488 363.558C810.324 365.908 815.093 368.549 819.172 371.819C823.182 374.975 826.743 379.628 823.825 382.806C823.803 382.834 823.78 382.863 823.757 382.891C823.856 382.751 824.095 382.581 824.211 382.54C824.336 382.49 824.347 382.499 824.31 382.5C824.227 382.507 823.995 382.503 823.744 382.479C823.242 382.433 822.649 382.336 822.056 382.227C820.874 382.008 819.642 381.735 818.427 381.458C815.977 380.895 813.521 380.291 811.086 379.697C806.178 378.5 801.285 377.321 796.302 376.313C796.3 376.312 796.298 376.312 796.296 376.312C761.929 369.514 727.242 364.83 693.641 356.014C693.594 356.002 693.548 355.989 693.501 355.976C681.171 352.619 669.073 348.932 657.12 344.648C638.349 337.553 617.483 329.958 604.584 316.477Z" fill="black"/>
<path d="M857.22 535.594C857.032 535.799 856.934 536.071 856.947 536.349C856.96 536.628 857.083 536.889 857.289 537.077C857.495 537.264 857.767 537.362 858.045 537.349C858.323 537.337 858.585 537.214 858.772 537.008C858.772 537.008 858.772 537.008 858.772 537.008C858.808 536.971 858.728 537.046 858.742 537.032C858.746 537.029 858.777 537.01 858.816 536.989C859.108 536.833 859.537 536.655 859.935 536.491C859.936 536.491 859.937 536.49 859.938 536.49C861.692 535.781 863.392 534.818 864.98 533.571C865.09 533.486 865.198 533.399 865.306 533.312C865.306 533.312 865.306 533.312 865.306 533.312C865.167 533.315 865.028 533.32 864.889 533.327C862.868 533.427 860.959 533.813 859.143 534.547C859.142 534.547 859.141 534.547 859.14 534.548C858.708 534.728 858.31 534.883 857.81 535.146C857.732 535.189 857.65 535.235 857.545 535.307C857.449 535.368 857.271 535.531 857.22 535.594Z" fill="black"/>
<path d="M847.663 549.463C848.07 549.132 848.328 548.653 848.381 548.131C848.434 547.61 848.278 547.089 847.947 546.682C847.615 546.276 847.136 546.018 846.615 545.965C846.093 545.911 845.572 546.068 845.166 546.399C845.166 546.399 845.166 546.399 845.166 546.399C826.988 562.911 809.063 579.062 790.579 594.978C789.506 595.905 788.431 596.86 787.349 597.839C784.644 600.308 781.945 602.737 779.33 605.5C778.162 606.834 776.875 608.326 776.586 610.601C776.426 612.124 777.295 613.531 778.292 614.326C779.73 615.503 781.451 615.946 783.119 616.144C783.399 616.175 783.68 616.198 783.963 616.212C809.551 615.873 832.544 604.07 855.73 595.121C858.833 593.863 861.976 592.695 865.136 591.599C871.84 589.28 878.109 585.491 883.333 580.606C884.698 579.331 886.003 578.007 887.265 576.636C887.89 575.959 888.511 575.26 889.116 574.57C889.426 574.216 889.721 573.876 890.016 573.545C890.159 573.385 890.316 573.212 890.438 573.087C890.514 573.008 890.565 572.96 890.605 572.925C890.617 572.914 890.635 572.906 890.574 572.951C890.533 572.977 890.467 573.027 890.299 573.088C890.249 573.104 890.233 573.112 890.126 573.135C890.013 573.158 889.863 573.174 889.678 573.152C889.307 573.125 888.838 572.819 888.666 572.523C896.082 582.897 884.171 592.743 874.491 598.079C864.227 603.987 853.018 608.044 841.993 613.598C839.867 614.864 837.688 615.513 835.425 618.601C834.367 620.779 832.588 622.715 833.802 626.786C834.196 627.729 834.933 628.544 835.747 629.062C836.432 629.514 837.29 629.822 837.941 629.979C839.298 630.304 840.499 630.342 841.744 630.319C846.383 630.135 850.544 629.082 854.711 628.016C863.017 625.799 870.991 623.067 878.987 620.332C894.902 615.04 910.896 608.418 926.756 606.005C926.984 605.982 927.21 605.959 927.436 605.937C945.896 604.326 965.706 603.288 982.111 610.011C982.719 610.309 983.333 610.65 983.75 610.944C983.92 611.064 984.041 611.166 984.114 611.236C984.191 611.307 984.224 611.364 984.188 611.311C984.157 611.265 984.05 611.054 984.043 610.76C984.03 610.458 984.136 610.202 984.183 610.124C984.293 609.969 984.108 610.212 983.815 610.397C983.514 610.603 983.109 610.824 982.697 611.022C980.968 611.842 978.842 612.509 976.749 613.112C972.517 614.312 968.122 615.302 963.716 616.325C954.903 618.47 946.006 620.022 937.099 624.266C936.881 624.379 936.67 624.496 936.464 624.615C935.237 625.352 933.743 626.354 932.771 628.313C931.725 630.371 932.213 632.865 933.015 634.334C934.639 637.312 936.755 638.914 938.778 640.525C942.891 643.628 947.175 646.01 951.475 648.333C955.779 650.638 960.101 652.774 964.392 654.941C966.532 656.025 968.639 657.098 970.672 658.219C971.723 658.801 972.701 659.367 973.591 659.947C974.05 660.248 974.455 660.535 974.778 660.802C974.915 660.914 975.073 661.063 975.114 661.111C975.173 661.156 975.075 661.169 974.892 660.619C975.376 662.323 975.56 663.857 975.393 665.314C973.978 674.657 957.902 676.085 946.579 676.211C934.609 676.146 921.188 674.927 910.87 671.543C910.678 671.448 910.6 671.364 910.686 671.451C910.734 671.507 910.812 671.59 910.912 671.816C911.009 672.032 911.062 672.352 911.039 672.588C910.982 673.103 910.836 673.172 910.891 673.117C910.929 673.063 911.071 672.912 911.262 672.754C912.05 672.1 913.286 671.417 914.526 670.808C934.004 662.48 955.703 657.138 976.572 650.711C979.795 649.744 983.001 648.851 986.25 648.014C1023.01 638.75 1064.21 635.019 1099.16 640.521C1100.1 641.289 1100.9 642.047 1101.58 642.791C1109.23 649.997 1101.16 659.759 1092.96 665.667C1084.52 671.943 1074.91 676.86 1065.2 681.421C1045.21 691.478 1026.9 694.412 1003.45 708.587C1002.59 711.303 1003.08 715.589 1005.61 717.988C1008.02 720.389 1010.68 721.234 1013.13 721.901C1030.36 725.08 1046.01 721.367 1061.76 718.71C1066.74 717.795 1070.58 714.286 1072.85 710.362C1073.29 709.595 1073.66 708.75 1073.91 707.862C1074.88 704.423 1073.66 701.248 1072.44 698.835C1071.86 697.677 1071.24 696.564 1070.61 695.452C1069.04 692.658 1067.15 690.058 1065.07 687.659C1056.96 678.752 1047.06 672.366 1034.37 669.882C1032.21 669.88 1030.56 669.889 1028.54 670.114C1028.22 670.148 1027.37 670.274 1026.84 670.425C1026.7 670.465 1026.56 670.508 1026.42 670.558C1026.34 670.582 1026.27 670.609 1026.2 670.637C1026.15 670.658 1025.94 670.748 1025.8 670.821C1025.27 671.113 1024.29 671.753 1024.24 673.236C1024.27 674.647 1025.22 675.319 1025.4 675.493C1025.66 675.715 1025.93 675.894 1026.21 676.064C1026.87 676.448 1027.21 676.59 1027.68 676.805C1065.21 688.517 1103.85 693.942 1140.39 702.51C1151.44 705.64 1138.67 712.107 1131.45 716.594C1120.72 723.675 1107.44 726.161 1099.34 740.465C1098.52 743.411 1100.46 746.203 1101.96 747.443C1103.55 748.837 1105.18 749.724 1106.77 750.546C1116.26 754.912 1126.02 753.739 1135.15 752.721C1138.44 752.288 1141.65 751.744 1144.9 751.113C1175.63 744.953 1204.63 733.37 1234.2 725.105C1234.16 725.122 1233.74 725.196 1233.31 724.949C1232.88 724.698 1232.81 724.446 1232.81 724.447C1232.82 724.433 1232.9 724.854 1232.89 725.269C1232.88 726.139 1232.71 727.179 1232.46 728.194C1231.96 730.232 1231.17 732.284 1230.15 734.1C1227.46 738.868 1223.7 743.133 1219.67 747.149C1216.42 750.367 1212.63 753.025 1209.12 756.004C1201.43 762.488 1193.51 768.751 1185.65 775.165C1178.47 781.017 1171.09 786.633 1163.56 792.066C1142.45 807.26 1120.22 821.04 1097.77 834.393C1091.46 838.136 1085.11 841.838 1078.76 845.508C1030.1 873.48 980.581 900.183 930.726 925.988C927.312 927.746 923.94 929.457 920.592 931.129C892.251 944.943 863.365 959.159 832.473 962.912C832.34 962.928 832.208 962.944 832.077 962.96C830.476 963.15 828.893 963.184 827.377 963.019C823.999 962.666 820.846 961.474 818.733 959.041L819.292 960.951C819.331 959.526 819.427 958.089 819.589 956.655C822.405 935.581 832.058 914.774 846.107 898.236L846.097 898.246C846.272 898.069 846.439 897.901 846.615 897.726C849.531 894.793 852.654 892.081 855.954 889.559C855.97 889.546 855.981 889.527 855.984 889.507C855.986 889.486 855.981 889.466 855.969 889.449C855.957 889.433 855.939 889.422 855.919 889.418C855.898 889.415 855.877 889.419 855.861 889.43C855.861 889.43 855.861 889.43 855.861 889.43C852.407 891.729 849.07 894.25 845.95 897.015C845.762 897.181 845.583 897.338 845.395 897.505L845.385 897.516C830.044 913.488 819.003 933.649 814.473 955.901C814.199 957.425 813.95 958.959 813.747 960.499L813.711 961.706L814.306 962.41C817.124 966.532 821.979 969.011 826.65 969.496C828.744 969.736 830.815 969.694 832.826 969.468C832.963 969.453 833.1 969.437 833.237 969.422C865.797 965.618 895.138 951.318 923.737 937.432C927.114 935.748 930.513 934.025 933.952 932.257C983.944 906.416 1033.49 879.731 1082.32 851.666C1088.69 847.983 1095.06 844.254 1101.39 840.47C1123.91 826.975 1146.16 812.93 1167.44 797.397C1175.03 791.845 1182.45 786.038 1189.64 779.993C1197.38 773.476 1205.18 767.077 1212.87 760.361C1216.39 757.268 1219.54 753.746 1222.91 750.412C1227.09 746.24 1231.13 741.73 1234.18 736.379C1235.45 734.128 1236.36 731.791 1236.99 729.307C1237.29 728.051 1237.54 726.788 1237.57 725.32C1237.56 724.567 1237.57 723.815 1237.16 722.697C1236.94 722.163 1236.53 721.391 1235.6 720.854C1234.65 720.316 1233.61 720.396 1233 720.565C1202.94 728.804 1173.98 739.992 1143.91 746.006C1140.74 746.621 1137.63 747.147 1134.47 747.566C1125.78 748.64 1116.27 749.342 1109.11 745.935C1106.28 744.641 1103.75 742.3 1104.35 741.691C1108.97 733.1 1123.36 727.5 1134 720.999C1138.18 718.518 1142.4 716.14 1146.3 712.455C1147.21 711.548 1148.21 710.444 1148.96 708.985C1149.74 707.56 1150.16 705.272 1149.27 703.384C1147.4 699.828 1144.68 698.979 1142.26 697.876C1104.03 688.965 1065.7 683.806 1029.45 672.757C1029.09 672.596 1028.81 672.469 1028.46 672.272C1028.33 672.192 1028.24 672.129 1028.23 672.119C1028.22 672.115 1028.23 672.109 1028.34 672.256C1028.44 672.393 1028.63 672.723 1028.64 673.23C1028.64 673.762 1028.41 674.167 1028.22 674.391C1028.03 674.616 1027.89 674.678 1027.86 674.701C1027.82 674.718 1027.9 674.678 1028.02 674.647C1028.13 674.613 1028.3 674.572 1028.52 674.533C1028.62 674.514 1028.78 674.488 1028.84 674.478C1028.92 674.466 1029 674.454 1029.09 674.442C1029.44 674.395 1029.84 674.351 1030.31 674.314C1030.54 674.295 1030.81 674.277 1031.05 674.263C1031.23 674.251 1031.43 674.24 1031.63 674.23C1032.43 674.19 1033.35 674.163 1034.38 674.15C1044.17 675.935 1055.19 681.877 1062.32 690.047C1064.24 692.253 1065.88 694.695 1067.17 697.284C1067.68 698.316 1068.1 699.387 1068.45 700.49C1069.16 702.739 1069.27 704.829 1068.76 706.352C1068.63 706.78 1068.44 707.195 1068.18 707.608C1066.44 710.47 1063.71 712.652 1060.77 713.08C1045.36 715.373 1028.96 718.25 1014.76 715.529C1012.88 715.06 1011.15 714.289 1010.34 713.428C1009.59 712.614 1009.41 711.86 1009.79 710.222C1024.78 705.419 1048.81 695.755 1067.73 686.742C1077.57 681.943 1087.32 676.813 1096.26 669.985C1100.66 666.511 1105.04 662.671 1107.94 657.228C1111.26 651.869 1109.75 643.449 1105.29 639.371C1104.42 638.429 1103.42 637.513 1102.3 636.618C1061.14 629.15 1023.35 635.083 985.243 644.104C981.951 644.951 978.697 645.835 975.417 646.778C954.415 653.007 933.067 657.139 912.114 665.807C910.665 666.514 909.264 667.194 907.703 668.427C906.951 669.178 905.847 669.633 905.426 672.19C905.377 672.783 905.489 673.48 905.739 674.048C906.006 674.646 906.26 674.968 906.58 675.319C906.73 675.48 906.92 675.652 907.046 675.757C907.173 675.863 907.303 675.962 907.434 676.055C907.698 676.241 907.969 676.403 908.249 676.551C921.525 681.166 933.634 681.923 946.581 682.251C953.001 682.252 959.495 681.886 966 680.206C972.057 678.667 980.596 674.753 981.567 666.039C981.854 663.494 981.509 661.191 980.859 658.905C980.56 657.889 979.98 657.248 979.708 656.94C979.371 656.568 978.987 656.232 978.723 656.016C978.102 655.509 977.557 655.138 976.973 654.756C975.856 654.035 974.781 653.425 973.647 652.804C971.464 651.616 969.311 650.539 967.138 649.458C962.791 647.303 958.498 645.229 954.286 643.024C950.095 640.818 945.927 638.522 942.324 635.847C940.575 634.543 938.839 632.958 938.19 631.697C938.035 631.4 937.969 631.161 937.957 631.038C937.949 630.913 937.949 630.905 937.992 630.795C938.054 630.591 938.609 630.017 939.372 629.584C939.496 629.512 939.628 629.437 939.77 629.363C947.164 625.741 956.295 623.912 964.991 621.787C969.399 620.74 973.82 619.725 978.286 618.436C980.52 617.773 982.76 617.092 985.098 615.978C986.286 615.308 987.526 614.977 988.952 612.843C989.277 612.279 989.555 611.478 989.525 610.605C989.504 609.758 989.199 608.995 988.871 608.465C988.214 607.435 987.573 606.96 986.885 606.462C986.057 605.891 985.28 605.484 984.496 605.103C965.412 597.525 945.904 599.28 926.926 600.858C926.696 600.881 926.465 600.905 926.233 600.929C908.786 603.66 893.361 610.276 877.351 615.586C869.395 618.32 861.467 621.042 853.436 623.199C849.455 624.238 845.35 625.219 841.617 625.361C841.122 625.374 840.674 625.365 840.28 625.337C839.865 625.309 839.423 625.245 839.127 625.17C838.812 625.097 838.531 624.974 838.438 624.908C838.315 624.822 838.357 624.842 838.348 624.838C838.343 624.833 838.304 624.715 838.323 624.466C838.345 624.185 838.411 623.891 838.53 623.52C838.826 622.655 839.132 622.046 839.68 621.091C839.77 620.879 840.622 620.123 841.475 619.579C842.322 619.019 843.301 618.464 844.293 617.936C854.73 612.625 866.205 608.161 876.656 601.712C881.828 598.473 887.052 594.827 890.873 589.565C895.029 584.464 895.182 576.045 891.126 570.905C890.937 570.582 890.445 570.262 890.043 570.231C889.844 570.207 889.677 570.224 889.545 570.251C889.421 570.278 889.4 570.287 889.338 570.308C889.128 570.383 889.012 570.46 888.915 570.525C888.745 570.647 888.708 570.688 888.623 570.765C888.47 570.909 888.407 570.981 888.298 571.101C888.135 571.283 887.968 571.481 887.821 571.658C887.518 572.024 887.238 572.372 886.943 572.733C886.37 573.436 885.793 574.133 885.213 574.81C884.039 576.178 882.828 577.496 881.557 578.765C876.706 583.615 871.221 587.996 864.826 590.807C861.758 592.155 858.686 593.499 855.582 594.756C832.465 603.712 808.954 614.936 784.045 614.834C783.788 614.817 783.535 614.793 783.284 614.761C781.79 614.568 780.29 614.107 779.244 613.211C778.498 612.58 778.229 611.673 778.509 610.928C778.923 609.772 780.26 608.723 781.445 607.622C784.062 605.271 787.028 603.079 789.853 600.748C790.983 599.823 792.088 598.899 793.163 597.97C811.614 582.083 829.842 565.668 847.663 549.463Z" fill="black"/>
<path d="M741.613 886.249C741.403 886.495 741.3 886.813 741.326 887.134C741.351 887.456 741.504 887.754 741.749 887.963C741.994 888.172 742.313 888.275 742.634 888.25C742.955 888.224 743.253 888.072 743.462 887.826C743.462 887.826 743.462 887.826 743.462 887.826C759.219 868.589 770.511 845.903 776.394 821.746C776.61 820.801 776.823 819.838 777.025 818.892C778.304 812.901 778.694 806.56 777.221 800.399C777.026 799.591 776.798 798.789 776.534 797.996C776.111 796.727 775.596 795.468 774.974 794.256C773.735 791.801 771.025 791.042 769.145 790.861C767.581 790.7 766.117 790.772 764.686 790.894C738.245 797.665 718.949 815.449 697.715 829.799C695.707 831.254 693.821 832.629 691.811 834.1C654.504 862.003 619.839 892.971 585.289 923.977C582.035 926.918 578.802 929.852 575.588 932.783C557.069 949.941 538.593 967.556 525.183 989.521C522.94 993.357 520.945 997.426 519.428 1001.71C519.042 1002.8 518.68 1003.94 518.371 1005.06C516.804 1010.12 518.805 1015.99 522.599 1019.4C534.33 1027.12 546.001 1021.04 556.565 1018.57C562.591 1016.73 568.497 1014.64 574.385 1012.45C605.688 1000.89 635.561 985.983 665.645 972.098C672.686 968.928 679.766 965.784 686.974 963.393C688.258 962.971 689.548 962.564 690.842 962.172C694.884 960.948 698.978 959.87 703.091 958.896C706.811 958.014 710.551 957.232 714.317 956.489C715.484 956.258 716.642 956.035 717.755 955.878C718.307 955.801 718.86 955.74 719.325 955.731C719.544 955.726 719.769 955.742 719.834 955.758C719.863 955.76 719.853 955.777 719.703 955.695C719.577 955.641 719.206 955.301 719.124 954.898C719.039 954.511 719.124 954.348 719.129 954.314C719.145 954.271 719.132 954.311 719.097 954.367C719.031 954.478 718.886 954.669 718.738 954.839C718.428 955.2 718.018 955.602 717.621 955.969C716.789 956.735 715.894 957.471 714.973 958.203C711.702 960.778 708.237 963.25 704.793 965.731C697.389 971.241 689.88 975.694 682.761 982.826C681.159 985.061 679.682 986.891 678.807 989.988C678.711 990.411 678.653 990.802 678.645 991.248C678.636 991.789 678.716 992.34 678.922 992.86C679.139 993.421 679.54 993.965 680.011 994.34C680.446 994.691 680.907 994.917 681.388 995.079C683.088 995.604 684.575 995.424 685.857 995.283C691.163 994.488 695.837 992.693 700.515 990.973C709.866 987.423 718.899 983.35 728.055 979.576C730.884 978.417 733.707 977.343 736.552 976.385C738.277 975.802 740.522 975.168 741.398 975.255C743.931 975.537 746.422 977.367 747.044 979.405C748.351 983.744 742.663 988.247 737.907 991.295C732.864 994.491 727.379 997.113 721.833 999.626C719.772 1000.56 717.768 1001.63 715.694 1002.56C712.983 1003.78 710.258 1004.98 707.538 1006.19C706.552 1006.63 705.538 1007 704.55 1007.23C704.06 1007.35 703.567 1007.42 703.176 1007.43C702.988 1007.43 702.815 1007.4 702.807 1007.4C702.803 1007.4 702.861 1007.41 702.975 1007.53C703.09 1007.64 703.21 1007.89 703.213 1008.06C702.725 1005.07 705.442 1002.71 708.638 1001.35C711.845 999.945 715.425 999.156 719.021 998.543C726.212 997.364 733.59 996.949 740.947 996.699C746.286 996.528 751.635 996.443 756.985 996.345C764.302 996.196 771.606 997.287 778.614 999.421C780.876 1000.1 782.818 1001.64 785.023 1002.46C788.147 1003.51 790.919 1005.02 794.984 1005.33C796.079 1005.34 797.245 1005.44 797.87 1005.7C798.015 1005.76 798.099 1005.83 798.09 1005.82C798.084 1005.83 797.999 1005.7 797.99 1005.62C797.99 1005.46 797.975 1005.79 797.757 1006.15C793.918 1012.58 787.203 1017.62 781.133 1022.94C776.57 1026.94 771.757 1030.76 768.11 1036.25C767.74 1036.84 767.43 1037.4 767.179 1037.95C766.868 1038.66 766.66 1039.21 766.516 1040.05C766.45 1040.47 766.426 1040.87 766.457 1041.3C766.492 1041.78 766.602 1042.26 766.791 1042.7C767.175 1043.63 767.907 1044.34 768.602 1044.77C771.471 1046.32 773.832 1046.09 776.232 1046.1C780.99 1045.93 785.452 1045.15 789.963 1044.31C798.901 1042.61 807.705 1040.39 816.49 1038.59C820.208 1037.86 824.125 1037.12 827.519 1037.17C827.653 1037.17 827.785 1037.18 827.916 1037.19C831.599 1037.34 835.418 1038.6 835.491 1041.24C835.927 1047.43 830.842 1053.69 826.695 1059.59C824.343 1062.99 821.655 1066.2 820.208 1070.82C819.568 1073.28 819.021 1076.59 821.263 1079.4C823.598 1082.04 826.629 1082.33 829.144 1082.5C834.309 1082.65 839.025 1081.61 843.707 1080.51C853.037 1078.26 861.976 1075.02 870.978 1072.55C872.875 1072.05 875.174 1071.5 876.456 1071.58C879.465 1071.83 881.994 1073.54 884.235 1076C885.672 1077.55 887.032 1079.32 888.623 1081.04C905.191 1098.47 931.047 1092.28 950.126 1085.28C960.122 1081.53 969.688 1076.85 978.981 1071.68C983.618 1069.09 988.152 1066.39 992.654 1063.57C994.969 1062.11 997.1 1060.74 999.373 1059.24C1000.41 1058.55 1001.6 1057.76 1002.67 1057.04C1003.28 1056.62 1003.68 1056.35 1004.32 1055.92C1004.45 1055.83 1004.57 1055.75 1004.67 1055.69C1004.81 1055.59 1005.02 1055.46 1005.03 1055.46C1005.04 1055.46 1005.03 1055.46 1005 1055.48C1005 1055.47 1004.95 1055.5 1004.86 1055.53C1004.75 1055.56 1004.69 1055.66 1004.09 1055.64C1003.81 1055.62 1003.15 1055.47 1002.74 1054.82C1002.34 1054.18 1002.45 1053.63 1002.51 1053.4C1002.67 1052.9 1002.77 1052.86 1002.82 1052.77C1002.92 1052.64 1002.93 1052.65 1002.93 1052.65C1002.92 1052.65 1002.92 1052.65 1002.92 1052.65C1002.91 1052.66 1002.88 1052.69 1002.83 1052.73C1002.74 1052.81 1002.61 1052.93 1002.43 1053.08C1000.7 1054.53 998.976 1055.93 997.214 1057.32C966.937 1082.32 930.658 1094.58 894.728 1113.26C893.841 1114.35 893.196 1115.69 892.897 1117.07C892.281 1120.03 893.016 1122.91 894.576 1125.33C895.296 1126.42 896.284 1127.32 897.32 1127.96C932.805 1133.86 964.596 1119.51 998.51 1118.69C999.002 1118.66 999.499 1118.62 999.999 1118.59C1017.92 1117.56 1035.98 1119.05 1053.83 1120.69C1054.04 1120.71 1054.24 1120.73 1054.44 1120.75C1054.89 1120.8 1055.25 1120.86 1055.52 1120.92C1055.84 1120.98 1056.11 1121.13 1055.97 1121.05C1055.89 1120.99 1055.6 1120.75 1055.53 1120.25C1055.5 1120.03 1055.54 1119.83 1055.57 1119.74C1055.59 1119.66 1055.62 1119.62 1055.62 1119.61C1055.62 1119.62 1055.44 1119.82 1055.16 1120.06C1054.06 1120.92 1052.6 1121.72 1051.07 1122.51C1048.09 1124.03 1044.92 1125.43 1041.76 1126.81C1035.46 1129.53 1029.02 1132.16 1022.62 1134.85C1009.87 1140.42 996.904 1145.17 985.015 1153.87C983.631 1154.87 982.401 1157.24 982.776 1159.26C983.076 1161.25 984.048 1162.6 985.018 1163.71C985.831 1164.62 986.706 1165.38 987.63 1166.05C990.023 1167.72 992.373 1168.48 994.682 1169.09C1022.56 1174.34 1049.77 1173.1 1077.22 1173.57C1080.14 1173.58 1083.05 1173.59 1085.99 1173.6L1086.03 1173.6C1087.15 1173.58 1088.24 1173.55 1089.34 1173.53C1112.09 1173.02 1134.89 1171.43 1157.44 1168.28C1157.63 1168.25 1157.81 1168.22 1157.99 1168.19C1162.57 1167.43 1167.11 1166.45 1171.57 1165.2C1171.57 1165.2 1171.57 1165.2 1171.57 1165.2C1171.57 1165.2 1171.57 1165.2 1171.57 1165.2C1171.57 1165.2 1171.57 1165.2 1171.57 1165.2C1171.57 1165.2 1171.57 1165.2 1171.57 1165.2C1171.57 1165.2 1171.57 1165.2 1171.57 1165.2C1167.07 1166.29 1162.52 1167.19 1157.92 1167.72C1157.74 1167.74 1157.56 1167.76 1157.37 1167.78C1134.73 1169.77 1111.99 1169.25 1089.3 1169.25C1088.21 1169.25 1087.12 1169.24 1086.01 1169.24L1086.05 1169.24C1083.11 1169.16 1080.2 1169.09 1077.29 1169.01C1050.06 1167.97 1022.13 1168.42 996.091 1163.5C994.082 1162.99 991.931 1162.45 990.602 1161.67C989.931 1161.26 989.312 1160.78 988.83 1160.26C988.236 1159.63 987.859 1158.92 987.817 1158.56C987.792 1158.38 987.804 1158.32 987.84 1158.22C987.878 1158.12 987.985 1157.96 988.217 1157.76C998.617 1149.86 1011.87 1144.59 1024.39 1138.97C1030.73 1136.2 1037.13 1133.49 1043.45 1130.65C1046.64 1129.21 1049.82 1127.75 1052.94 1126.09C1054.58 1125.19 1056.05 1124.42 1057.69 1123.09C1057.92 1122.89 1058.13 1122.7 1058.33 1122.48C1058.44 1122.37 1058.52 1122.28 1058.64 1122.14C1058.77 1121.97 1058.9 1121.8 1059.01 1121.6C1059.13 1121.4 1059.23 1121.18 1059.31 1120.93C1059.4 1120.64 1059.48 1120.19 1059.42 1119.76C1059.28 1118.81 1058.77 1118.28 1058.32 1117.94C1057.79 1117.56 1057.58 1117.51 1057.25 1117.38C1056.96 1117.27 1056.56 1117.17 1056.34 1117.12C1055.87 1117.03 1055.37 1116.96 1054.81 1116.91C1054.6 1116.89 1054.39 1116.87 1054.18 1116.86C1036.07 1115.52 1017.97 1115.47 999.864 1116.51C999.358 1116.54 998.855 1116.57 998.357 1116.61C964.96 1117.59 929.973 1130.39 899.137 1125.12C898.441 1124.67 897.872 1124.11 897.465 1123.45C896.456 1121.81 896.032 1119.63 896.433 1117.85C896.62 1117 896.997 1116.21 897.551 1115.52C930.314 1099.17 969.23 1085.13 999.445 1060.14C1001.23 1058.73 1002.98 1057.3 1004.74 1055.83C970.062 1068.12 925.694 1106.65 891.376 1078.5C889.941 1076.94 888.584 1075.17 886.989 1073.45C884.576 1070.73 880.943 1068.12 876.847 1067.79C874.056 1067.67 872.119 1068.34 870.004 1068.83C860.688 1071.38 851.884 1074.54 842.792 1076.71C838.281 1077.77 833.665 1078.72 829.326 1078.56C827.203 1078.48 825.141 1077.94 824.308 1076.88C823.439 1075.91 823.449 1073.92 824.03 1071.86C825.007 1068.6 827.583 1065.21 829.918 1061.91C833.95 1055.89 839.754 1049.88 839.356 1040.81C839.169 1038.07 836.873 1035.64 834.684 1034.76C832.468 1033.78 830.259 1033.5 828.119 1033.37C827.969 1033.37 827.817 1033.36 827.665 1033.35C823.307 1033.35 819.62 1034.3 815.767 1035.03C806.856 1036.86 798.084 1039.07 789.285 1040.74C784.866 1041.57 780.466 1042.32 776.13 1042.47C774.034 1042.53 771.694 1042.39 770.539 1041.69C770.28 1041.52 770.186 1041.39 770.137 1041.28C770.088 1041.17 770.052 1040.96 770.106 1040.63C770.166 1040.27 770.277 1039.93 770.488 1039.46C770.658 1039.09 770.889 1038.66 771.187 1038.19C774.242 1033.54 778.982 1029.63 783.5 1025.7C789.562 1020.33 796.312 1015.49 800.888 1007.88C801.241 1007.18 801.707 1006.34 801.498 1004.97C801.244 1003.52 799.985 1002.7 799.228 1002.41C797.603 1001.8 796.315 1001.82 795.021 1001.78C792.514 1001.66 789.271 1000.23 786.227 999.162C783.982 998.345 781.445 998.327 779.15 997.639C771.985 995.463 764.457 994.345 756.95 994.506C751.604 994.608 746.247 994.696 740.888 994.867C733.498 995.12 726.086 995.385 718.691 996.377C714.98 996.904 711.269 997.569 707.647 998.995C704.238 1000.25 699.735 1003.44 700.269 1008.33C700.295 1008.78 700.546 1009.32 700.867 1009.63C701.187 1009.95 701.505 1010.1 701.774 1010.2C702.308 1010.4 702.724 1010.43 703.112 1010.44C703.882 1010.47 704.539 1010.37 705.185 1010.25C706.465 1010 707.644 1009.6 708.794 1009.14C711.545 1008.02 714.313 1006.91 717.074 1005.77C719.186 1004.9 721.359 1004.16 723.45 1003.21C729.079 1000.66 734.67 997.984 740.01 994.576C742.653 992.86 745.261 990.983 747.544 988.488C749.735 986.128 751.952 982.302 750.701 978.319C749.297 974.223 745.615 972.018 741.886 971.518C738.999 971.415 737.373 972.237 735.359 972.836C732.353 973.863 729.543 975.058 726.68 976.231C717.447 980.038 708.438 984.099 699.238 987.592C691.272 990.345 675.398 996.876 685.65 984.994C691.455 979.224 699.648 974 706.9 968.665C710.358 966.173 713.819 963.709 717.22 961.037C718.184 960.272 719.126 959.501 720.075 958.63C720.531 958.208 721.016 957.741 721.481 957.205C721.704 956.945 721.956 956.635 722.192 956.249C722.391 955.819 722.863 955.404 722.642 954.031C722.494 953.335 721.894 952.752 721.518 952.559C721.103 952.325 720.802 952.259 720.543 952.204C720.027 952.105 719.625 952.104 719.264 952.107C718.527 952.122 717.886 952.2 717.254 952.286C715.997 952.464 714.805 952.695 713.613 952.928C709.829 953.672 706.031 954.464 702.254 955.36C698.075 956.349 693.914 957.473 689.797 958.72C688.478 959.119 687.163 959.531 685.852 959.957C678.38 962.41 671.205 965.507 664.106 968.691C633.849 982.612 604.152 997.396 573.045 1008.84C567.201 1011.01 561.352 1013.07 555.438 1014.87C545.361 1017.62 532.745 1022.05 525.277 1016.56C522.361 1013.86 521.028 1009.84 522.15 1006.11C522.436 1005.08 522.77 1004.03 523.13 1003.02C524.542 999.05 526.499 995.228 528.652 991.552C541.558 970.398 559.937 952.787 578.324 935.785C581.535 932.859 584.764 929.929 588.014 926.992C622.502 896.038 657.14 864.992 694.125 837.255C696.127 835.784 698.007 834.411 700.007 832.957C720.825 818.684 741.469 800.645 765.019 794.625C766.313 794.509 767.594 794.458 768.752 794.577C770.259 794.727 771.329 795.194 771.713 795.966C772.262 796.986 772.741 798.072 773.15 799.18C773.406 799.873 773.638 800.578 773.847 801.293C775.432 806.73 775.675 812.673 774.603 818.407C774.43 819.336 774.235 820.281 774.024 821.206C768.281 844.863 757.036 867.444 741.613 886.249Z" fill="black"/>
<defs>
<filter id="filter0_d_1_74" x="38.0888" y="48.6155" width="1586.39" height="1606.53" filterUnits="userSpaceOnUse" color-interpolation-filters="sRGB">
<feFlood flood-opacity="0" result="BackgroundImageFix"/>
<feColorMatrix in="SourceAlpha" type="matrix" values="0 0 0 0 0 0 0 0 0 0 0 0 0 0 0 0 0 0 127 0" result="hardAlpha"/>
<feOffset dy="8.0791"/>
<feGaussianBlur stdDeviation="4.03955"/>
<feComposite in2="hardAlpha" operator="out"/>
<feColorMatrix type="matrix" values="0 0 0 0 0 0 0 0 0 0 0 0 0 0 0 0 0 0 0.25 0"/>
<feBlend mode="normal" in2="BackgroundImageFix" result="effect1_dropShadow_1_74"/>
<feBlend mode="normal" in="SourceGraphic" in2="effect1_dropShadow_1_74" result="shape"/>
</filter>
<filter id="filter1_d_1_74" x="819.561" y="1256.59" width="380.86" height="397.358" filterUnits="userSpaceOnUse" color-interpolation-filters="sRGB">
<feFlood flood-opacity="0" result="BackgroundImageFix"/>
<feColorMatrix in="SourceAlpha" type="matrix" values="0 0 0 0 0 0 0 0 0 0 0 0 0 0 0 0 0 0 127 0" result="hardAlpha"/>
<feOffset dy="8.0791"/>
<feGaussianBlur stdDeviation="4.03955"/>
<feComposite in2="hardAlpha" operator="out"/>
<feColorMatrix type="matrix" values="0 0 0 0 0 0 0 0 0 0 0 0 0 0 0 0 0 0 0.25 0"/>
<feBlend mode="normal" in2="BackgroundImageFix" result="effect1_dropShadow_1_74"/>
<feBlend mode="normal" in="SourceGraphic" in2="effect1_dropShadow_1_74" result="shape"/>
</filter>
<linearGradient id="paint0_linear_1_74" x1="843.463" y1="1256.65" x2="1026.64" y2="1524.44" gradientUnits="userSpaceOnUse">
<stop stop-color="#F2FF80"/>
<stop offset="0.706733" stop-color="#E7F176"/>
<stop offset="1" stop-color="#E3ED5E"/>
</linearGradient>
</defs>
</svg>
